# Rhino

v -1.5 31 0
v -0.5 31 0
v 0 35 0
v 1.5 31 0
v 0.5 31 0
v -0.5 31 0
v -0.5 31 0.1
v -1.5 31 0
v -1.5 31 0.1
v 1.5 31 0
v 1.5 31 0.1
v 0.5 31 0
v 0.5 31 0.1
v 0 35 0
v 0 35 0.1
v 1.5 31 0
v 1.5 31 0.1
v -1.5 31 0
v -1.5 31 0.1
v 0 35 0
v 0 35 0.1
v -1.5 31 0.1
v -0.5 31 0.1
v 0.5 31 0.1
v 1.5 31 0.1
v 0 35 0.1
v -0.5 -31 0
v -0.5 31 0
v 0.5 -31 0
v 0.5 31 0
v -0.5 -31 0
v -0.5 -31 0.1
v -0.5 31 0
v -0.5 31 0.1
v 0.5 31 0
v 0.5 31 0.1
v 0.5 -31 0
v 0.5 -31 0.1
v -0.5 -31 0.1
v -0.5 31 0.1
v 0.5 -31 0.1
v 0.5 31 0.1
v 0.5 -31 0
v -0.5 -31 0
v 1.5 -31 0
v 0 -35 0
v -1.5 -31 0
v 0.5 -31 0
v 0.5 -31 0.1
v 1.5 -31 0
v 1.5 -31 0.1
v -1.5 -31 0
v -1.5 -31 0.1
v -0.5 -31 0
v -0.5 -31 0.1
v 0 -35 0
v 0 -35 0.1
v -1.5 -31 0
v -1.5 -31 0.1
v 1.5 -31 0
v 1.5 -31 0.1
v 0 -35 0
v 0 -35 0.1
v 0.5 -31 0.1
v -0.5 -31 0.1
v 1.5 -31 0.1
v -1.5 -31 0.1
v 0 -35 0.1
vt 0.08 0.3941
vt 0.08 0.41
vt 0.01651 0.4179
vt 0.08 0.4417
vt 0.08 0.4259
vt 0.01587 0.0242
vt 0.01587 0.02579
vt 0.03175 0.0242
vt 0.03175 0.02579
vt 0.01587 0.008067
vt 0.01587 0.009654
vt 0.03175 0.008067
vt 0.03175 0.009654
vt 0.01587 0.04033
vt 0.01587 0.04192
vt 0.08368 0.04033
vt 0.08368 0.04192
vt 0.01587 0.03227
vt 0.01587 0.03385
vt 0.08368 0.03227
vt 0.08368 0.03385
vt 0.5084 0.06517
vt 0.5243 0.06517
vt 0.5402 0.06517
vt 0.556 0.06517
vt 0.5322 0.1287
vt 0 0
vt 0 0.9827
vt 0.01441 0
vt 0.01441 0.9827
vt 0.01587 0.7292
vt 0.01587 0.7308
vt 0.9985 0.7292
vt 0.9985 0.7308
vt 0.01587 0.7212
vt 0.01587 0.7227
vt 0.9985 0.7212
vt 0.9985 0.7227
vt 0.9985 0.6405
vt 0.01587 0.6405
vt 0.9985 0.6564
vt 0.01587 0.6564
vt 0.0481 0.1287
vt 0.03222 0.1287
vt 0.06397 0.1287
vt 0.04016 0.06517
vt 0.01635 0.1287
vt 0.01587 0.01613
vt 0.01587 0.01772
vt 0.03175 0.01613
vt 0.03175 0.01772
vt 0.01587 0
vt 0.01587 0.001587
vt 0.03175 0
vt 0.03175 0.001587
vt 0.01587 0.05647
vt 0.01587 0.05805
vt 0.08368 0.05647
vt 0.08368 0.05805
vt 0.01587 0.0484
vt 0.01587 0.04999
vt 0.08368 0.0484
vt 0.08368 0.04999
vt 0.01651 0.7695
vt 0.01651 0.7536
vt 0.01651 0.7854
vt 0.01651 0.7378
vt 0.08 0.7616
vn 0 0 -1
vn 0 0 -1
vn 0 0 -1
vn 0 0 -1
vn 0 0 -1
vn 0 -1 0
vn 0 -1 0
vn 0 -1 0
vn 0 -1 0
vn 0 -1 0
vn 0 -1 0
vn 0 -1 0
vn 0 -1 0
vn 0.9363 0.3511 0
vn 0.9363 0.3511 0
vn 0.9363 0.3511 0
vn 0.9363 0.3511 0
vn -0.9363 0.3511 0
vn -0.9363 0.3511 0
vn -0.9363 0.3511 0
vn -0.9363 0.3511 0
vn 0 0 1
vn 0 0 1
vn 0 0 1
vn 0 0 1
vn 0 0 1
vn 0 0 -1
vn 0 0 -1
vn 0 0 -1
vn 0 0 -1
vn -1 1.735e-18 0
vn -1 1.735e-18 0
vn -1 1.735e-18 0
vn -1 1.735e-18 0
vn 1 -1.735e-18 0
vn 1 -1.735e-18 0
vn 1 -1.735e-18 0
vn 1 -1.735e-18 0
vn 0 0 1
vn 0 0 1
vn 0 0 1
vn 0 0 1
vn 0 0 -1
vn 0 0 -1
vn 0 0 -1
vn 0 0 -1
vn 0 0 -1
vn 0 1 0
vn 0 1 0
vn 0 1 0
vn 0 1 0
vn 0 1 0
vn 0 1 0
vn 0 1 0
vn 0 1 0
vn -0.9363 -0.3511 0
vn -0.9363 -0.3511 0
vn -0.9363 -0.3511 0
vn -0.9363 -0.3511 0
vn 0.9363 -0.3511 0
vn 0.9363 -0.3511 0
vn 0.9363 -0.3511 0
vn 0.9363 -0.3511 0
vn 0 0 1
vn 0 0 1
vn 0 0 1
vn 0 0 1
vn 0 0 1
f 3/3/3 2/2/2 1/1/1
f 4/4/4 5/5/5 3/3/3
f 2/2/2 3/3/3 5/5/5
f 7/7/7 9/9/9 8/8/8 6/6/6
f 11/11/11 13/13/13 12/12/12 10/10/10
f 15/15/15 17/17/17 16/16/16 14/14/14
f 19/19/19 21/21/21 20/20/20 18/18/18
f 26/26/26 22/22/22 23/23/23
f 25/25/25 26/26/26 24/24/24
f 23/23/23 24/24/24 26/26/26
f 28/28/28 30/30/30 29/29/29 27/27/27
f 32/32/32 34/34/34 33/33/33 31/31/31
f 36/36/36 38/38/38 37/37/37 35/35/35
f 40/40/40 39/39/39 41/41/41 42/42/42
f 46/46/46 47/47/47 44/44/44
f 43/43/43 45/45/45 46/46/46
f 44/44/44 43/43/43 46/46/46
f 49/49/49 51/51/51 50/50/50 48/48/48
f 53/53/53 55/55/55 54/54/54 52/52/52
f 57/57/57 59/59/59 58/58/58 56/56/56
f 61/61/61 63/63/63 62/62/62 60/60/60
f 68/68/68 65/65/65 67/67/67
f 64/64/64 68/68/68 66/66/66
f 65/65/65 68/68/68 64/64/64
